<svg width="40" height="42" viewBox="0 0 40 42" fill="none" xmlns="http://www.w3.org/2000/svg">
<path d="M13.379 31.8429C13.379 32.0032 13.1935 32.1314 12.9597 32.1314C12.6935 32.1554 12.5081 32.0272 12.5081 31.8429C12.5081 31.6827 12.6935 31.5545 12.9274 31.5545C13.1694 31.5304 13.379 31.6587 13.379 31.8429ZM10.871 31.4824C10.8145 31.6426 10.9758 31.8269 11.2177 31.875C11.4274 31.9551 11.6694 31.875 11.7177 31.7147C11.7661 31.5545 11.6129 31.3702 11.371 31.2981C11.1613 31.242 10.9274 31.3221 10.871 31.4824ZM14.4355 31.3462C14.2016 31.4022 14.0403 31.5545 14.0645 31.7388C14.0887 31.899 14.2984 32.0032 14.5403 31.9471C14.7742 31.891 14.9355 31.7388 14.9113 31.5785C14.8871 31.4263 14.6694 31.3221 14.4355 31.3462ZM19.7419 0.641022C8.55645 0.641022 0 9.07852 0 20.1923C0 29.0785 5.62903 36.6827 13.6694 39.359C14.7016 39.5433 15.0645 38.9103 15.0645 38.3894C15.0645 37.8926 15.0403 35.1522 15.0403 33.4696C15.0403 33.4696 9.39516 34.6715 8.20968 31.0817C8.20968 31.0817 7.29032 28.75 5.96774 28.149C5.96774 28.149 4.12097 26.891 6.09677 26.9151C6.09677 26.9151 8.10484 27.0753 9.20968 28.9824C10.9758 32.0753 13.9355 31.1859 15.0887 30.6571C15.2742 29.375 15.7984 28.4856 16.379 27.9567C11.871 27.4599 7.32258 26.8109 7.32258 19.1026C7.32258 16.899 7.93548 15.7933 9.22581 14.383C9.01613 13.8622 8.33064 11.7147 9.43548 8.9423C11.121 8.42147 15 11.1058 15 11.1058C16.6129 10.657 18.3468 10.4247 20.0645 10.4247C21.7823 10.4247 23.5161 10.657 25.129 11.1058C25.129 11.1058 29.0081 8.41346 30.6935 8.9423C31.7984 11.7228 31.1129 13.8622 30.9032 14.383C32.1936 15.8013 32.9839 16.907 32.9839 19.1026C32.9839 26.8349 28.2339 27.4519 23.7258 27.9567C24.4677 28.5897 25.0968 29.7917 25.0968 31.6747C25.0968 34.375 25.0726 37.7163 25.0726 38.3734C25.0726 38.8942 25.4435 39.5272 26.4677 39.3429C34.5323 36.6827 40 29.0785 40 20.1923C40 9.07852 30.9274 0.641022 19.7419 0.641022ZM7.83871 28.2772C7.73387 28.3574 7.75806 28.5417 7.89516 28.6939C8.02419 28.8221 8.20968 28.8782 8.31452 28.774C8.41935 28.6939 8.39516 28.5096 8.25806 28.3574C8.12903 28.2292 7.94355 28.1731 7.83871 28.2772ZM6.96774 27.6282C6.91129 27.7324 6.99194 27.8606 7.15323 27.9407C7.28226 28.0208 7.44355 27.9968 7.5 27.8846C7.55645 27.7804 7.47581 27.6522 7.31452 27.5721C7.15323 27.524 7.02419 27.5481 6.96774 27.6282ZM9.58065 30.4808C9.45161 30.5849 9.5 30.8253 9.68548 30.9776C9.87097 31.1619 10.1048 31.1859 10.2097 31.0577C10.3145 30.9535 10.2661 30.7131 10.1048 30.5609C9.92742 30.3766 9.68548 30.3526 9.58065 30.4808ZM8.66129 29.3029C8.53226 29.383 8.53226 29.5913 8.66129 29.7756C8.79032 29.9599 9.00806 30.0401 9.1129 29.9599C9.24193 29.8558 9.24193 29.6474 9.1129 29.4631C9 29.2788 8.79032 29.1987 8.66129 29.3029Z" fill="#8A7DAF"/>
</svg>
