<svg width="40" height="45" viewBox="0 0 40 45" fill="none" xmlns="http://www.w3.org/2000/svg">
<g clip-path="url(#clip0)">
<path d="M20.0083 12.3926C14.3297 12.3926 9.74934 16.9014 9.74934 22.4912C9.74934 28.0811 14.3297 32.5898 20.0083 32.5898C25.6868 32.5898 30.2672 28.0811 30.2672 22.4912C30.2672 16.9014 25.6868 12.3926 20.0083 12.3926ZM20.0083 29.0566C16.3386 29.0566 13.3386 26.1123 13.3386 22.4912C13.3386 18.8701 16.3297 15.9258 20.0083 15.9258C23.6868 15.9258 26.6779 18.8701 26.6779 22.4912C26.6779 26.1123 23.6779 29.0566 20.0083 29.0566V29.0566ZM33.0797 11.9795C33.0797 13.2891 32.0083 14.335 30.6868 14.335C29.3565 14.335 28.294 13.2803 28.294 11.9795C28.294 10.6787 29.3654 9.62402 30.6868 9.62402C32.0083 9.62402 33.0797 10.6787 33.0797 11.9795ZM39.8743 14.3701C39.7225 11.2148 38.9904 8.41992 36.6422 6.11719C34.3029 3.81445 31.4636 3.09375 28.2583 2.93555C24.9547 2.75098 15.0529 2.75098 11.7493 2.93555C8.55291 3.08496 5.71363 3.80566 3.36541 6.1084C1.0172 8.41113 0.293984 11.2061 0.13327 14.3613C-0.0542297 17.6133 -0.0542297 27.3604 0.13327 30.6123C0.285056 33.7676 1.0172 36.5625 3.36541 38.8652C5.71363 41.168 8.54398 41.8887 11.7493 42.0469C15.0529 42.2315 24.9547 42.2315 28.2583 42.0469C31.4636 41.8975 34.3029 41.1768 36.6422 38.8652C38.9815 36.5625 39.7136 33.7676 39.8743 30.6123C40.0618 27.3604 40.0618 17.6221 39.8743 14.3701V14.3701ZM35.6065 34.1016C34.91 35.8242 33.5618 37.1514 31.8029 37.8457C29.169 38.874 22.919 38.6367 20.0083 38.6367C17.0975 38.6367 10.8386 38.8652 8.21362 37.8457C6.46362 37.1602 5.11541 35.833 4.41005 34.1016C3.36541 31.5088 3.60648 25.3564 3.60648 22.4912C3.60648 19.626 3.37434 13.4648 4.41005 10.8809C5.10648 9.1582 6.4547 7.83106 8.21362 7.13672C10.8476 6.1084 17.0975 6.3457 20.0083 6.3457C22.919 6.3457 29.1779 6.11719 31.8029 7.13672C33.5529 7.82227 34.9011 9.14941 35.6065 10.8809C36.6511 13.4736 36.41 19.626 36.41 22.4912C36.41 25.3564 36.6511 31.5176 35.6065 34.1016Z" fill="#8A7DAF"/>
</g>
<defs>
<clipPath id="clip0">
<rect width="40" height="45" fill="white"/>
</clipPath>
</defs>
</svg>
