<svg width="40" height="46" viewBox="0 0 40 46" fill="none" xmlns="http://www.w3.org/2000/svg">
<path d="M8.95357 39.9364H0.660714V13.2738H8.95357V39.9364ZM4.80268 9.63683C2.15089 9.63683 0 7.44392 0 4.79639C1.89803e-08 3.52468 0.505995 2.30505 1.40667 1.40582C2.30735 0.506588 3.52893 0.00140381 4.80268 0.00140381C6.07643 0.00140381 7.29801 0.506588 8.19868 1.40582C9.09936 2.30505 9.60536 3.52468 9.60536 4.79639C9.60536 7.44392 7.45357 9.63683 4.80268 9.63683ZM39.9911 39.9364H31.7161V26.9572C31.7161 23.864 31.6536 19.8971 27.4045 19.8971C23.0929 19.8971 22.4321 23.2578 22.4321 26.7344V39.9364H14.1482V13.2738H22.1018V16.9109H22.2179C23.325 14.816 26.0295 12.6053 30.0643 12.6053C38.4571 12.6053 40 18.1232 40 25.2903V39.9364H39.9911Z" fill="#8A7DAF"/>
</svg>
